<svg width="36" height="42" viewBox="0 0 36 42" fill="none" xmlns="http://www.w3.org/2000/svg">
<path fill-rule="evenodd" clip-rule="evenodd" d="M21.6892 32.8958C20.2891 29.9028 19.9803 27.1226 20.5338 24.1828C13.6302 17.8424 1.64112 20.7526 0.807943 29.8577C0.1244 37.3166 9.0726 44.4822 16.7859 39.52C24.2875 40.2997 29.4104 39.9039 32.158 38.3287C32.8551 37.5371 33.2279 36.3832 33.2804 34.8651C38.7507 25.4135 34.0047 18.6024 32.257 7.08558C31.4278 1.62737 17.825 -0.319897 16.7353 1.49934C15.7702 4.11033 14.8323 8.00099 17.1276 9.73605C17.013 7.69018 17.2519 5.13039 17.9607 3.73242C18.1257 3.52764 18.4073 3.46857 18.6403 3.58868C18.8714 3.70682 18.9879 3.97658 18.92 4.22861C18.1257 5.79601 17.9937 9.43276 18.4034 11.2797C18.9083 11.8251 19.5608 12.1008 20.357 12.1028C20.3142 11.9453 20.289 11.7818 20.2754 11.6145C20.1181 9.50951 20.0249 6.22682 21.3376 4.44287C21.4483 4.2755 21.6425 4.18296 21.8405 4.20265C22.0406 4.22431 22.2114 4.35229 22.2872 4.54132C22.3629 4.73036 22.3299 4.94302 22.2017 5.09859C21.3939 6.1934 21.1104 8.33772 21.3493 11.5317C21.4133 12.3489 22.0639 12.979 22.8698 13.0065C24.5728 13.0617 25.9884 12.276 27.1439 10.8603C27.039 9.36373 26.6234 8.86363 24.3553 9.15701C26.4486 8.42649 27.4662 7.63493 27.4099 6.78822C27.4099 6.50074 27.6312 6.25657 27.9148 6.23887C28.1983 6.21918 28.4507 6.42987 28.4856 6.71736C28.54 7.55025 28.1264 8.21584 27.5186 8.73959C27.9089 9.17475 28.1497 9.83244 28.2176 10.7835L28.2487 11.2226L27.971 11.5593C27.07 12.6639 25.9748 13.4811 24.699 13.8631C24.8757 18.7957 18.7435 24.0471 22.6619 32.4295C22.7765 32.7012 22.66 33.0123 22.3959 33.1383C22.1357 33.2624 21.8232 33.1557 21.6892 32.8958ZM3.14601 18.478C3.35962 18.7183 3.33826 19.0884 3.10135 19.305C2.86249 19.5216 2.49744 19.5 2.28383 19.2598L0.310849 17.0209C0.0972408 16.7807 0.118602 16.4105 0.355512 16.1939C0.592421 15.9793 0.959416 15.999 1.17109 16.2392L3.14601 18.478ZM11.1621 16.0305C11.1621 16.3554 10.9019 16.6192 10.5815 16.6192C10.2591 16.6192 10.0008 16.3554 10.0008 16.0305V13.0296C10.0008 12.7028 10.2591 12.4409 10.5815 12.4409C10.8999 12.4409 11.1621 12.7027 11.1621 13.0296V16.0305ZM18.8774 19.2597C18.6638 19.5 18.2987 19.5216 18.0599 19.305C17.823 19.0884 17.8036 18.7182 18.0153 18.478L19.9902 16.2392C20.2018 15.999 20.5689 15.9793 20.8058 16.1939C21.0427 16.4105 21.064 16.7807 20.8504 17.0209L18.8774 19.2597Z" fill="white"/>
</svg>
