<svg xmlns="http://www.w3.org/2000/svg" version="1.1" viewBox="-5.0 -10.0 110.0 135.0">
 <path d="m34.734 2.9414c-0.66406 0-1.2461 0.44141-1.4219 1.082l-12.922 47.215v0.003907c-0.11719 0.44141-0.023437 0.91406 0.25391 1.2773 0.27734 0.36328 0.71094 0.57812 1.168 0.57812h17.5l-12.098 42.09 0.003906-0.003906c-0.1875 0.66797 0.11328 1.3789 0.72656 1.7031 0.61328 0.32422 1.3711 0.17969 1.8164-0.35547l49.551-58.84c0.37109-0.4375 0.45312-1.0508 0.20703-1.5703-0.24219-0.52344-0.76562-0.85547-1.3359-0.85156h-21.711l8.1289-30.484h-0.003906c0.11719-0.4375 0.023438-0.90625-0.25391-1.2656-0.27734-0.36328-0.70312-0.57422-1.1562-0.57812zm1.1172 2.9414h25.414l-8.1445 30.484c-0.11328 0.44141-0.019532 0.91016 0.26172 1.2734 0.27734 0.35938 0.70703 0.57031 1.1641 0.57031h20.465l-43.066 51.168 10.738-37.344c0.125-0.44531 0.039062-0.92578-0.23828-1.293-0.27734-0.37109-0.71484-0.58594-1.1758-0.58594h-17.531z"/>
</svg>