<svg xmlns="http://www.w3.org/2000/svg" version="1.1" viewBox="-5.0 -10.0 110.0 135.0">
 <path d="m71.438 34.914c-0.42969-0.67187-1.2109-1.0234-2-0.875-0.78125 0.14063-1.3984 0.74219-1.5625 1.5234-0.46094 2.2344-1.125 3.8828-1.7969 5.0859-0.92969-22.117-20.891-32.164-21.109-32.273-0.65625-0.32031-1.4375-0.25-2.0234 0.1875-0.58594 0.4375-0.88281 1.1562-0.76562 1.875l0.52344 3.2812c0.78125 15.859-10.719 23.625-11.211 23.945-0.0625 0.039063-0.125 0.085938-0.17969 0.13281-19.469 16.078-6.5234 40.188-6.3594 40.484 7.1641 12.109 19.047 13.523 24.211 13.523 1.3203 0 2.2031-0.09375 2.4453-0.125 14.422-1.4531 22.938-14.148 23.289-14.68 11.82-17.562-2.8281-41.094-3.4609-42.086zm-26.977 33.539c-0.023438-0.13281-1.6719-11.922 6.3906-20.641 0.99219 3.8906 3.3203 10.125 8.5703 14.766 0.35938 0.35938 4.5859 4.7422 4.2578 10.586-0.24219 4.2109-2.8047 8.2578-7.625 12.039-1.1016 0.30469-4.8828 1.2578-8.4688 0.89062-0.015626 0-0.039063 0-0.054688-0.007812-0.0625-0.007813-5.9531-0.50781-9.125-5.3984-2.2188-3.4219-2.6953-8.1719-1.4375-14.172 1.0078 1.7344 2.5625 3.3047 4.9609 4.0859 0.64062 0.21094 1.3516 0.070313 1.8672-0.36719s0.76562-1.1172 0.66406-1.7812zm27.195 6.3828c-0.046875 0.070312-2.7188 4.0234-7.4141 7.5625 2.0469-2.8594 3.1719-5.875 3.3438-9.0156 0.44531-7.8438-5.2266-13.406-5.4688-13.641-0.023438-0.023438-0.046876-0.039063-0.0625-0.0625-6.9062-6.0781-8-15.805-8.0078-15.898-0.070313-0.71094-0.53125-1.3281-1.1953-1.6016-0.66406-0.27344-1.4219-0.16406-1.9766 0.28125-8.6562 6.9922-10.312 16.625-10.469 22.172-1.4062-2.3047-1.3906-5.3828-1.3906-5.4219 0.015625-0.95313-0.65625-1.7891-1.6016-1.9609-0.9375-0.17188-1.8672 0.35938-2.1953 1.2578-3.7656 10.477-3.7812 18.672-0.0625 24.352 0.4375 0.66406 0.91406 1.2578 1.4062 1.8047-2.9453-1.7344-5.8594-4.3594-8.2109-8.3359-0.47656-0.875-11.469-21.477 5.3828-35.469 1.3516-0.91406 13.555-9.6719 12.891-26.945 5.8281 4.0078 16.945 14.031 15.445 31.438-0.054687 0.66406 0.22656 1.3203 0.75781 1.7188 0.53125 0.40625 1.2344 0.50781 1.8594 0.28125 0.41406-0.15625 3.4375-1.4219 5.5859-6.3828 3.4531 7.1172 9.125 22.352 1.3828 33.867z"/>
</svg>